HIERARCHY
ROOT SpineBase
{
  OFFSET 0.000000 0.000000 0.000000
  CHANNELS 6 Xposition Yposition Zposition Zrotation Xrotation Yrotation
  JOINT SpineMid
  {
    OFFSET -0.000000 31.482384 0.000000
    CHANNELS 3 Zrotation Xrotation Yrotation
    JOINT SpineShoulder
    {
      OFFSET -0.128293 23.309604 -0.861915
      CHANNELS 3 Zrotation Xrotation Yrotation
      JOINT Neck
      {
        OFFSET -0.087136 7.708867 -0.638324
        CHANNELS 3 Zrotation Xrotation Yrotation
        JOINT Head
        {
          OFFSET 5.069771 15.408829 -2.983756
          CHANNELS 3 Zrotation Xrotation Yrotation
          End Site
          {
            OFFSET 0 0 0
          }
        }
      }
      JOINT ShoulderLeft
      {
        OFFSET -14.759545 -2.155583 -5.309839
        CHANNELS 3 Zrotation Xrotation Yrotation
        JOINT ElbowLeft
        {
          OFFSET -7.458637 -22.790027 -0.060388
          CHANNELS 3 Zrotation Xrotation Yrotation
          JOINT WristLeft
          {
            OFFSET 10.619427 -15.724661 -15.638259
            CHANNELS 3 Zrotation Xrotation Yrotation
            JOINT HandLeft
            {
              OFFSET 6.079892 -1.757250 -0.546147
              CHANNELS 3 Zrotation Xrotation Yrotation
              JOINT HandTipLeft
              {
                OFFSET 3.909882 -5.622937 -6.968843
                CHANNELS 3 Zrotation Xrotation Yrotation
                End Site
                {
                  OFFSET 0 0 0
                }
              }
              JOINT ThumbLeft
              {
                OFFSET 2.754821 -6.965479 -2.782097
                CHANNELS 3 Zrotation Xrotation Yrotation
                End Site
                {
                  OFFSET 0 0 0
                }
              }
            }
          }
        }
      }
      JOINT ShoulderRight
      {
        OFFSET 16.427101 -4.248082 8.384764
        CHANNELS 3 Zrotation Xrotation Yrotation
        JOINT ElbowRight
        {
          OFFSET 4.362755 -30.936495 0.896129
          CHANNELS 3 Zrotation Xrotation Yrotation
          JOINT WristRight
          {
            OFFSET 12.610193 -7.674861 -19.026354
            CHANNELS 3 Zrotation Xrotation Yrotation
            JOINT HandRight
            {
              OFFSET 0.995089 -0.067718 -12.112082
              CHANNELS 3 Zrotation Xrotation Yrotation
              JOINT HandTipRight
              {
                OFFSET -0.694033 -5.649691 -2.156028
                CHANNELS 3 Zrotation Xrotation Yrotation
                End Site
                {
                  OFFSET 0 0 0
                }
              }
              JOINT ThumbRight
              {
                OFFSET -4.662223 3.302367 -5.159909
                CHANNELS 3 Zrotation Xrotation Yrotation
                End Site
                {
                  OFFSET 0 0 0
                }
              }
            }
          }
        }
      }
    }
  }
  JOINT HipLeft
  {
    OFFSET -7.435553 2.411146 -6.406302
    CHANNELS 3 Zrotation Xrotation Yrotation
    JOINT KneeLeft
    {
      OFFSET -4.457596 -37.970486 -0.976109
      CHANNELS 3 Zrotation Xrotation Yrotation
      JOINT AnkleLeft
      {
        OFFSET -4.983036 -36.285307 11.328756
        CHANNELS 3 Zrotation Xrotation Yrotation
        JOINT FootLeft
        {
          OFFSET 4.081423 -4.300520 -12.841808
          CHANNELS 3 Zrotation Xrotation Yrotation
          End Site
          {
            OFFSET 0 0 0
          }
        }
      }
    }
  }
  JOINT HipRight
  {
    OFFSET 6.643179 -0.423123 -0.764685
    CHANNELS 3 Zrotation Xrotation Yrotation
    JOINT KneeRight
    {
      OFFSET 0.081589 -39.793475 3.507834
      CHANNELS 3 Zrotation Xrotation Yrotation
      JOINT AnkleRight
      {
        OFFSET -4.749759 -32.292357 9.331412
        CHANNELS 3 Zrotation Xrotation Yrotation
        JOINT FootRight
        {
          OFFSET 3.895247 -4.334349 -12.844021
          CHANNELS 3 Zrotation Xrotation Yrotation
          End Site
          {
            OFFSET 0 0 0
          }
        }
      }
    }
  }
}
MOTION
Frames: 8
Frame Time: 0.033333
33.597663 82.702974 320.388838 0.000000 0.000000 -21.836922 -0.000000 0.000000 21.836922 -0.000000 0.000000 0.000000 -0.000000 0.000000 0.000000 0.000000 0.000000 0.000000 -0.000000 0.000000 0.000000 -0.000000 0.000000 0.000000 -0.000000 0.000000 0.000000 -0.000000 0.000000 0.000000 0.000000 0.000000 0.000000 0.000000 0.000000 0.000000 -0.000000 0.000000 0.000000 -0.000000 0.000000 0.000000 -0.000000 0.000000 0.000000 -0.000000 0.000000 0.000000 0.000000 0.000000 0.000000 0.000000 0.000000 0.000000 -0.000000 0.000000 21.836922 -0.000000 0.000000 0.000000 -0.000000 0.000000 0.000000 0.000000 0.000000 0.000000 -0.000000 0.000000 21.836922 -0.000000 0.000000 0.000000 -0.000000 0.000000 0.000000 0.000000 0.000000 0.000000
33.479782 82.553504 320.604493 0.141763 -0.246565 -21.364245 -0.221845 0.177978 21.364894 -0.000000 0.000000 0.000000 -0.000000 0.000000 0.000000 0.000000 0.000000 0.000000 -0.000000 0.000000 0.000000 -0.000000 0.000000 0.000000 5.485639 3.590123 8.954301 -7.958573 -5.957998 -10.176329 0.000000 0.000000 0.000000 0.000000 0.000000 0.000000 0.779769 -0.409162 -0.032295 0.074975 -0.785610 -4.094815 -0.837847 -2.915569 8.830840 -6.262201 13.448641 -2.002050 0.000000 0.000000 0.000000 0.000000 0.000000 0.000000 -0.989858 0.758735 21.287833 0.504826 -0.819906 0.086951 -0.000000 0.000000 0.000000 0.000000 0.000000 0.000000 -0.221845 0.177978 21.364894 -0.000000 0.000000 0.000000 -0.000000 0.000000 0.000000 0.000000 0.000000 0.000000
33.375912 82.423789 320.788561 0.277588 -0.457683 -20.967908 -0.422992 0.328035 20.970227 -0.000000 0.000000 0.000000 -0.000000 0.000000 0.000000 0.000000 0.000000 0.000000 0.356563 1.404450 -0.465438 -0.345248 -1.407273 0.456827 8.262237 6.362128 14.911344 -14.240530 -9.977817 -17.931246 0.000000 0.000000 0.000000 0.000000 0.000000 0.000000 1.482735 -0.799729 -0.059361 0.046592 -1.440390 -7.572089 -1.015241 -4.894595 15.593465 -13.558210 27.615995 0.037044 0.000000 0.000000 0.000000 0.000000 0.000000 0.000000 -1.861763 1.422975 20.836373 0.955611 -1.534743 0.168640 -0.000000 0.000000 0.000000 0.000000 0.000000 0.000000 -0.422992 0.328035 20.970227 -0.000000 0.000000 0.000000 -0.000000 0.000000 0.000000 0.000000 0.000000 0.000000
33.286052 82.313830 320.941043 0.407549 -0.633590 -20.664757 -0.604938 0.448980 20.669380 0.634803 -0.558567 0.049322 0.025313 -0.092827 0.296614 0.000000 0.000000 0.000000 -0.176385 2.591398 -0.723092 -0.432540 -2.037857 0.659675 9.286927 8.226924 18.968461 -18.726807 -12.815274 -23.896415 0.000000 0.000000 0.000000 0.000000 0.000000 0.000000 1.474101 -0.614829 -0.146028 -0.055203 -1.936921 -10.425836 -0.913640 -6.251759 20.703223 -22.249912 40.467695 5.646574 0.000000 0.000000 0.000000 0.000000 0.000000 0.000000 -2.618027 1.983009 20.495007 1.349677 -2.140777 0.242320 -0.000000 0.000000 0.000000 0.000000 0.000000 0.000000 0.144372 1.276649 20.746721 -0.993911 -0.508458 -0.093034 -0.000000 0.000000 0.000000 0.000000 0.000000 0.000000
33.210204 82.223626 321.061939 0.531717 -0.774503 -20.470428 0.124544 0.181152 20.494767 0.091959 -0.037898 0.035762 -0.125872 -0.088918 0.329123 0.000000 0.000000 0.000000 -0.297641 3.297145 -0.928573 0.558314 -2.408467 0.010730 7.911774 9.234118 22.715003 -21.286419 -14.822798 -28.476857 0.000000 0.000000 0.000000 0.000000 0.000000 0.000000 1.856097 -0.842309 -0.188092 -0.201396 -2.260593 -12.668897 -0.722514 -7.218829 24.418564 -31.017649 50.004804 12.985041 0.000000 0.000000 0.000000 0.000000 0.000000 0.000000 -3.261148 2.430010 20.275446 1.684705 -2.635020 0.305541 -0.000000 0.000000 0.000000 0.000000 0.000000 0.000000 0.133749 1.568484 20.568682 -1.206714 -0.645928 -0.114449 -0.000000 0.000000 0.000000 0.000000 0.000000 0.000000
33.148367 82.153178 321.151248 0.650156 -0.880618 -20.398050 0.148705 0.197755 20.428055 0.093099 -0.037907 0.041960 -0.359620 -0.066238 0.327888 0.000000 0.000000 0.000000 -0.451515 3.923321 -1.113738 1.625994 -2.681211 -0.620620 5.504644 9.444243 25.592725 -21.703382 -16.170486 -31.828212 0.000000 0.000000 0.000000 0.000000 0.000000 0.000000 2.184252 -1.081022 -0.226514 -0.367534 -2.404847 -14.321777 -0.537932 -7.951875 26.897695 -36.239276 55.787374 18.066572 0.000000 0.000000 0.000000 0.000000 0.000000 0.000000 -3.793293 2.756456 20.187443 1.958765 -3.015171 0.356204 -0.000000 0.000000 0.000000 0.000000 0.000000 0.000000 0.089676 1.795508 20.508347 -1.361586 -0.768196 -0.130660 -0.000000 0.000000 0.000000 0.000000 0.000000 0.000000
33.115158 82.131828 321.170246 0.779574 -0.903229 -20.713952 0.187689 0.178632 20.750464 0.077191 -0.040143 0.047747 -0.864853 0.022956 0.239711 0.000000 0.000000 0.000000 -0.723265 4.463643 -1.277465 3.599794 -2.583464 -1.753800 -0.777172 8.044235 29.156051 -16.388838 -16.587554 -34.445166 0.000000 0.000000 0.000000 0.000000 0.000000 0.000000 2.482037 -1.378841 -0.264580 -0.816470 -1.265640 -12.716823 -0.223742 -10.987337 23.345602 -18.111354 55.643598 4.820652 0.000000 0.000000 0.000000 0.000000 0.000000 0.000000 -4.042963 2.756619 20.500315 2.830847 -3.373169 0.695910 -0.784262 0.287745 -0.282363 0.000000 0.000000 0.000000 -0.067803 1.843617 20.827073 -1.370043 -0.842280 -0.132492 -0.000000 0.000000 0.000000 0.000000 0.000000 0.000000
33.078301 82.105167 321.194087 0.898260 -0.928000 -20.903224 0.206888 0.182006 20.945496 0.058356 -0.028585 0.052509 -1.353225 0.017378 0.170167 0.000000 0.000000 0.000000 -0.992469 4.919817 -1.422639 5.317517 -2.417559 -2.602186 -5.458439 6.158263 30.445989 -11.493862 -16.249370 -34.132047 0.000000 0.000000 0.000000 0.000000 0.000000 0.000000 3.237015 -2.249062 -0.335002 -0.768626 -0.146758 -14.323098 -0.508192 -12.624955 24.323352 -0.944980 50.130769 -8.548259 0.000000 0.000000 0.000000 0.000000 0.000000 0.000000 -4.348308 2.859355 20.679459 3.077298 -3.605268 0.778310 -0.910743 0.334437 -0.327562 0.000000 0.000000 0.000000 -0.199745 1.931925 21.020618 -1.403078 -0.944958 -0.137101 -0.000000 0.000000 0.000000 0.000000 0.000000 0.000000
